<svg xmlns="http://www.w3.org/2000/svg" viewBox="0 0 64 64" role="img" aria-label="Дети В ТОПЕ">
  <style>
    .bg { fill: #ffffff; }
    .dot-white { fill: #e5e5e5; }
    @media (prefers-color-scheme: dark) {
      .bg { fill: #0a0a0a; }
      .dot-white { fill: #ffffff; }
    }
  </style>
  <rect class="bg" width="64" height="64" rx="14"/>
  <g transform="translate(18 8)">
    <circle class="dot-white" cx="4" cy="4" r="3.2"/>
    <circle class="dot-white" cx="14" cy="4" r="3.2"/>
    <circle cx="24" cy="4" r="3.2" fill="#fada00"/>
    <circle class="dot-white" cx="34" cy="4" r="3.2"/>
    <circle class="dot-white" cx="44" cy="4" r="3.2"/>

    <circle class="dot-white" cx="4" cy="12" r="3.2"/>
    <circle cx="14" cy="12" r="3.2" fill="#fada00"/>
    <circle cx="24" cy="12" r="3.2" fill="#fada00"/>
    <circle cx="34" cy="12" r="3.2" fill="#fada00"/>
    <circle class="dot-white" cx="44" cy="12" r="3.2"/>

    <circle cx="4" cy="20" r="3.2" fill="#fada00"/>
    <circle cx="14" cy="20" r="3.2" fill="#fada00"/>
    <circle cx="24" cy="20" r="3.2" fill="#e61e78"/>
    <circle cx="34" cy="20" r="3.2" fill="#fada00"/>
    <circle cx="44" cy="20" r="3.2" fill="#fada00"/>

    <circle cx="4" cy="28" r="3.2" fill="#fada00"/>
    <circle cx="14" cy="28" r="3.2" fill="#e61e78"/>
    <circle cx="24" cy="28" r="3.2" fill="#e61e78"/>
    <circle cx="34" cy="28" r="3.2" fill="#e61e78"/>
    <circle cx="44" cy="28" r="3.2" fill="#fada00"/>

    <circle cx="4" cy="36" r="3.2" fill="#e61e78"/>
    <circle cx="14" cy="36" r="3.2" fill="#e61e78"/>
    <circle cx="24" cy="36" r="3.2" fill="#00a9c1"/>
    <circle cx="34" cy="36" r="3.2" fill="#e61e78"/>
    <circle cx="44" cy="36" r="3.2" fill="#e61e78"/>

    <circle cx="4" cy="44" r="3.2" fill="#e61e78"/>
    <circle cx="14" cy="44" r="3.2" fill="#00a9c1"/>
    <circle cx="24" cy="44" r="3.2" fill="#00a9c1"/>
    <circle cx="34" cy="44" r="3.2" fill="#00a9c1"/>
    <circle cx="44" cy="44" r="3.2" fill="#e61e78"/>

    <circle cx="4" cy="52" r="3.2" fill="#00a9c1"/>
    <circle cx="14" cy="52" r="3.2" fill="#00a9c1"/>
    <circle class="dot-white" cx="24" cy="52" r="3.2"/>
    <circle cx="34" cy="52" r="3.2" fill="#00a9c1"/>
    <circle cx="44" cy="52" r="3.2" fill="#00a9c1"/>

    <circle cx="4" cy="60" r="3.2" fill="#00a9c1"/>
    <circle class="dot-white" cx="14" cy="60" r="3.2"/>
    <circle class="dot-white" cx="24" cy="60" r="3.2"/>
    <circle class="dot-white" cx="34" cy="60" r="3.2"/>
    <circle cx="44" cy="60" r="3.2" fill="#00a9c1"/>
  </g>
</svg>
